<?xml version="1.0" encoding="UTF-8" standalone="no"?>
<svg
   xmlns:dc="http://purl.org/dc/elements/1.1/"
   xmlns:cc="http://creativecommons.org/ns#"
   xmlns:rdf="http://www.w3.org/1999/02/22-rdf-syntax-ns#"
   xmlns:svg="http://www.w3.org/2000/svg"
   xmlns="http://www.w3.org/2000/svg"
   xmlns:sodipodi="http://sodipodi.sourceforge.net/DTD/sodipodi-0.dtd"
   xmlns:inkscape="http://www.inkscape.org/namespaces/inkscape"
   width="184.99977"
   height="240"
   viewBox="0 0 184.99977 240"
   version="1.1"
   id="svg4"
   sodipodi:docname="OtterTune_Brandmark_Black_Transparent.svg"
   style="fill:none"
   inkscape:version="0.92.5 (2060ec1f9f, 2020-04-08)">
  <metadata
     id="metadata10">
    <rdf:RDF>
      <cc:Work
         rdf:about="">
        <dc:format>image/svg+xml</dc:format>
        <dc:type
           rdf:resource="http://purl.org/dc/dcmitype/StillImage" />
        <dc:title></dc:title>
      </cc:Work>
    </rdf:RDF>
  </metadata>
  <defs
     id="defs8" />
  <sodipodi:namedview
     pagecolor="#ffffff"
     bordercolor="#666666"
     borderopacity="1"
     objecttolerance="10"
     gridtolerance="10"
     guidetolerance="10"
     inkscape:pageopacity="0"
     inkscape:pageshadow="2"
     inkscape:window-width="640"
     inkscape:window-height="480"
     id="namedview6"
     showgrid="false"
     fit-margin-top="0"
     fit-margin-left="0"
     fit-margin-right="0"
     fit-margin-bottom="0"
     inkscape:zoom="0.7375"
     inkscape:cx="92.000039"
     inkscape:cy="120"
     inkscape:window-x="253"
     inkscape:window-y="174"
     inkscape:window-maximized="0"
     inkscape:current-layer="svg4" />
  <path
     d="M 173.99204,97.42 V 77.775 c 0,-10.361 0.498,-14.501 6.37,-20.9237 5.872,-6.4227 5.764,-13.8741 1.842,-21.2753 -3.922,-7.4012 -9.555,-8.8564 -15.622,-4.6916 C 153.84104,12.5444 125.47804,0 92.630039,0 c -32.848,0 -61.2762,12.6699 -74.0385,30.8844 -6.1319,-4.3404 -11.9606002,-2.7347 -15.7957002,4.5662 -3.8352,7.3008 -4.0519,14.8526 1.8201,21.2753 5.8719002,6.4231 6.3703002,10.5621 6.3703002,21.0491 v 19.77 c 0,17.237 -10.9856001828,20.373 -10.9856001828,43.956 C -0.05716118,155.112 3.8088388,168.355 10.986239,179.134 v 22.58 c 0,24.863 41.9918,38.286 81.5138,38.286 39.522001,0 81.492001,-13.523 81.492001,-38.386 v -22.58 c 7.194,-10.77 11.069,-24.018 11.007,-37.633 0,-23.483 -11.007,-26.619 -11.007,-43.981 z m -42.924,-49.7512 c 4.334,-0.3512 11.094,0.3513 11.159,1.3046 0.152,2.7347 -11.289,0.2008 -9.555,4.215 0.613,1.3001 0.934,2.7584 0.932,4.24 0.216,3.5876 -2.774,6.7236 -6.696,7.0496 -3.922,0.327 -8.06,-2.233 -8.277,-5.7952 -0.217,-3.5626 4.875,-10.4871 12.437,-11.014 z m -77.158001,0 c 7.54,0.6272 12.675,7.5267 12.459,11.014 -0.217,3.4872 -4.334,6.1222 -8.299,5.7952 -3.965,-0.326 -6.912,-3.462 -6.674,-7.0496 -0.01,-1.4796 0.303,-2.938 0.91,-4.24 1.734,-4.0142 -9.707,-1.4803 -9.533,-4.215 0.065,-1.0537 6.868,-1.7562 11.137,-1.3046 z M 159.47504,201.614 c 0,9.659 -26.305,23.684 -66.975001,23.684 -40.67,0 -66.9748,-14.025 -66.9748,-23.684 v -5.921 c 3.667,3.19 7.5108,6.098 11.5058,8.706 2.851,2.119 6.238,3.059 9.609,2.667 3.371,-0.392 6.529,-2.092 8.96,-4.825 12.142,2.677 24.475,4.013 36.835,3.989 12.360001,0.025 24.694001,-1.31 36.835001,-3.989 2.431,2.733 5.589,4.433 8.96,4.825 3.371,0.392 6.758,-0.548 9.609,-2.667 4.037,-2.609 7.923,-5.517 11.636,-8.706 z m -35.969,-13.147 c -10.259,2.067 -20.657,3.075 -31.071001,3.011 -10.421,0.064 -20.826,-0.944 -31.093,-3.011 0.672,-7.526 -2.297,-15.68 -10.834,-20.071 -1.452,-0.777 -2.882,-1.605 -4.334,-2.508 15.084,4.369 30.582,6.527 46.131,6.422 15.629001,0.118 31.208001,-2.048 46.369001,-6.448 -1.387,0.904 -2.817,1.732 -4.334,2.509 -8.472,4.416 -11.419,12.469 -10.834,20.096 z M 159.47504,134 c 0,9.659 -26.305,23.683 -66.975001,23.683 -40.67,0 -66.9748,-14.024 -66.9748,-23.683 v -12.093 c 15.6878,10.361 41.8188,15.806 66.9748,15.806 25.156001,0 51.287001,-5.445 66.975001,-15.806 z m -17.334,-19.394 c -13.153,5.494 -30.812,8.505 -49.706001,8.505 -40.887,0 -66.9748,-14.025 -66.9748,-23.684 0,-2.333 1.5167,-5.018 4.3335,-7.527 -3.7052,-5.168 -5.0269,-10.687 -2.5568,-15.254 2.4701,-4.566 7.2151,-3.161 5.6121,0.377 -4.0737,8.806 7.367,15.63 16.857,16.132 13.738,0.727 7.194,5.469 20.975,5.469 12.415,0 20.497,-6.974 20.497,-12.895 0,-4.265 -12.827,-2.509 -12.827,-14.928 0,-5.996 6.782,-5.445 14.149,-5.445 7.367,0 14.149001,-0.551 14.149001,5.445 0,12.544 -12.827001,10.663 -12.827001,14.928 0,5.921 8.082001,12.895 20.497001,12.895 12.416,0 7.801,-5.268 17.486,-5.268 7.844,0 21.299,-7.276 17.551,-16.333 -1.473,-3.613 3.185,-4.867 5.612,-0.377 2.427,4.491 1.343,9.058 -1.582,13.799 3.944,3.036 6.089,6.122 6.089,8.857 0,5.043 -6.609,10.838 -17.269,15.304 z"
     id="path2"
     inkscape:connector-curvature="0"
     style="fill:#494e52" />
</svg>
